<svg width="100%" height="100%" viewBox="0 0 15 15" version="1.1" xmlns="http://www.w3.org/2000/svg" xmlns:xlink="http://www.w3.org/1999/xlink" xml:space="preserve" style="fill-rule:evenodd;clip-rule:evenodd;stroke-linejoin:round;stroke-miterlimit:2;">
    <path d="M14.4,1.2L0.6,1.2C0.3,1.2 -0,1.5 -0,1.9L-0,5C-0,5.3 0.3,5.6 0.6,5.6L1.2,5.6L1.2,13.1C1.2,13.4 1.5,13.7 1.8,13.7L13,13.7C13.3,13.7 13.6,13.4 13.6,13.1L13.6,5.6L14.2,5.6C14.7,5.6 15,5.3 15,5L15,1.9C15,1.5 14.7,1.2 14.4,1.2ZM12.5,12.5L2.5,12.5L2.5,5.6L12.5,5.6L12.5,12.5ZM13.8,4.4L1.2,4.4L1.2,2.5L13.7,2.5L13.7,4.4L13.8,4.4ZM5.6,7.5C5.6,7.2 5.9,6.9 6.2,6.9L8.7,6.9C9,6.9 9.3,7.2 9.3,7.5C9.3,7.8 9.1,8.1 8.8,8.1L6.2,8.1C5.9,8.1 5.6,7.8 5.6,7.5Z" style="fill-rule:nonzero;"/>
</svg>
