<svg width="100%" height="100%" viewBox="0 0 15 15" version="1.1" xmlns="http://www.w3.org/2000/svg" xmlns:xlink="http://www.w3.org/1999/xlink" xml:space="preserve" style="fill-rule:evenodd;clip-rule:evenodd;stroke-linejoin:round;stroke-miterlimit:2;">
    <path d="M13.6,1.4C11.7,-0.5 8.7,-0.5 6.8,1.4L2.2,6C2.1,6.1 2,6.3 2,6.5L2,12L0.2,13.8C-0.1,14.1 -0.1,14.5 0.2,14.8C0.3,14.9 0.5,15 0.7,15C0.9,15 1,14.9 1.2,14.8L3,13L8.5,13C8.7,13 8.9,12.9 9,12.8L13.6,8.2C15.5,6.3 15.5,3.3 13.6,1.4ZM8.2,11.6L4.4,11.6L5.8,10.2L9.7,10.2L8.2,11.6ZM12.6,7.2L11,8.9L7.1,8.9L10.7,5.3C11,5 11,4.6 10.7,4.3C10.4,4 10,4 9.7,4.3L5,9.1L3.4,10.7L3.4,6.8L7.8,2.4C9.1,1.1 11.3,1.1 12.6,2.4C14,3.7 14,5.9 12.6,7.2Z" style="fill-rule:nonzero;"/>
</svg>
