<svg width="100%" height="100%" viewBox="0 0 15 15" version="1.1" xmlns="http://www.w3.org/2000/svg" xmlns:xlink="http://www.w3.org/1999/xlink" xml:space="preserve" xmlns:serif="http://www.serif.com/" style="fill-rule:evenodd;clip-rule:evenodd;stroke-linejoin:round;stroke-miterlimit:2;">
    <g transform="matrix(0.842179,0,0,0.842179,-2.52654,-2.52645)">
        <path d="M3,12.205C3,12.594 3.152,12.968 3.423,13.248L9.719,19.747C11.077,21.149 13.32,21.167 14.7,19.787L19.787,14.7C21.168,13.319 21.15,11.075 19.747,9.717L13.246,3.422C12.966,3.151 12.592,3 12.203,3L4.5,3C3.672,3 3,3.672 3,4.5L3,12.205ZM12.203,4.5L4.5,4.5L4.5,12.205L10.796,18.703C11.571,19.504 12.852,19.514 13.64,18.726L18.727,13.639C19.515,12.851 19.504,11.57 18.704,10.795L12.203,4.5ZM8.498,9.495C9.048,9.495 9.495,9.048 9.495,8.498C9.495,7.947 9.048,7.5 8.498,7.5C7.947,7.5 7.5,7.947 7.5,8.498C7.5,9.048 7.947,9.495 8.498,9.495Z"/>
    </g>
</svg>
