<svg width="100%" height="100%" viewBox="0 0 15 15" version="1.1" xmlns="http://www.w3.org/2000/svg" xmlns:xlink="http://www.w3.org/1999/xlink" xml:space="preserve" style="fill-rule:evenodd;clip-rule:evenodd;stroke-linejoin:round;stroke-miterlimit:2;">
    <path d="M7.5,0C3.4,0 0,3.4 0,7.5C0,11.6 3.4,15 7.5,15C11.6,15 15,11.6 15,7.5C15,3.4 11.6,0 7.5,0ZM7.5,13.6C4.1,13.6 1.4,10.8 1.4,7.5C1.4,4.1 4.2,1.4 7.5,1.4C10.9,1.4 13.6,4.2 13.6,7.5C13.6,10.9 10.9,13.6 7.5,13.6ZM10.8,9.2C10.7,9.4 10.4,9.6 10.2,9.6C10.1,9.6 10,9.6 9.9,9.5L7.2,8.1C7,8 6.8,7.8 6.8,7.5L6.8,4C6.8,3.6 7.1,3.3 7.5,3.3C7.9,3.3 8.2,3.6 8.2,4L8.2,7.1L10.6,8.3C10.9,8.4 11,8.8 10.8,9.2Z" style="fill-rule:nonzero;"/>
</svg>
